<svg id="Layer_1" height="512" viewBox="0 0 512 512" width="512" xmlns="http://www.w3.org/2000/svg" data-name="Layer 1"><path d="m498.24 220.44v71.12l-52.07 5.08a195.243 195.243 0 0 1 -27.3 64.76l33.65 40.64-50.16 50.17-40.64-33.66a189.868 189.868 0 0 1 -64.76 27.31l-5.08 52.7h-71.12l-5.08-52.7a195.4 195.4 0 0 1 -64.77-27.31l-40.64 33.66-50.16-50.17 33.66-40.64a189.785 189.785 0 0 1 -27.31-64.76l-52.7-5.08v-71.12l52.7-5.08a195.263 195.263 0 0 1 27.31-64.76l-33.66-40.64 50.16-50.17 40.64 33.66a189.919 189.919 0 0 1 64.77-27.31l5.08-52.7h71.12l5.08 52.7a195.263 195.263 0 0 1 64.76 27.31l40.64-33.66 49.53 50.17-33.66 40.64a189.785 189.785 0 0 1 27.31 64.76z" fill="#fedb41"/><path d="m256 108.32a147.68 147.68 0 1 1 -147.68 147.68 147.682 147.682 0 0 1 147.68-147.68z" fill="#00acea"/><path d="m339.2 209.38a32.628 32.628 0 0 1 0 46.14l-33.07 33.07a16.314 16.314 0 0 1 -23.07 0l-15.17-15.17-27.82-27.82-14.31-14.3a16.314 16.314 0 0 1 0-23.07l33.07-33.07a32.622 32.622 0 0 1 46.15 0zm-23.46 31.91a10.87 10.87 0 0 0 0-15.38l-27.3-27.3a10.888 10.888 0 0 0 -15.38 0l-7.5 7.5 42.68 42.68z" fill="#00efd1"/><path d="m315.74 225.91a10.87 10.87 0 0 1 0 15.38l-7.5 7.5-42.68-42.68 7.5-7.5a10.888 10.888 0 0 1 15.38 0z" fill="#00acea"/><path d="m267.89 273.42-.23.23-15.71 16.48-18.41-2.07-9.68 9.69 1.85 19.57-23.98 2.56-2.47 23.9-36.01 2.62 3.99-27.97 72.6-72.6.23-.23z" fill="#fedb41"/></svg>