<svg id="Layer_2" height="512" viewBox="0 0 128 128" width="512" xmlns="http://www.w3.org/2000/svg" data-name="Layer 2"><path d="m126.25 72.167v-16.334h-12.857a49.754 49.754 0 0 0 -8.656-21.021l9.156-9.156-11.55-11.549-9.132 9.132a49.759 49.759 0 0 0 -21.044-8.749v-12.74h-16.334v12.74a49.759 49.759 0 0 0 -21.045 8.749l-9.132-9.132-11.549 11.55 9.156 9.156a49.754 49.754 0 0 0 -8.656 21.021l-12.857-.143v16.333l12.908.142a49.76 49.76 0 0 0 8.724 20.9l-9.274 9.274 11.549 11.549 9.3-9.3a49.755 49.755 0 0 0 20.879 8.631v13.03h16.331v-13.025a49.755 49.755 0 0 0 20.879-8.631l9.3 9.3 11.549-11.549-9.274-9.274a49.76 49.76 0 0 0 8.724-20.9z" fill="#284cb2"/><path d="m100.83 64c0 .59-.01 1.17-.04 1.75a36.656 36.656 0 0 1 -9.54 23.03c-.79.86-1.61 1.68-2.47 2.47a36.656 36.656 0 0 1 -23.03 9.54c-.58.03-1.16.04-1.75.04s-1.17-.01-1.75-.04a36.656 36.656 0 0 1 -23.03-9.54c-.86-.79-1.68-1.61-2.47-2.47a36.656 36.656 0 0 1 -9.54-23.03c-.03-.58-.04-1.16-.04-1.75s.01-1.17.04-1.75a36.656 36.656 0 0 1 9.54-23.03c.79-.86 1.61-1.68 2.47-2.47a36.656 36.656 0 0 1 23.03-9.54c.58-.03 1.16-.04 1.75-.04s1.17.01 1.75.04a36.656 36.656 0 0 1 23.03 9.54c.86.79 1.68 1.61 2.47 2.47a36.656 36.656 0 0 1 9.54 23.03c.03.58.04 1.16.04 1.75z" fill="#06daf7"/><g fill="#05b8e2"><path d="m65.75 27.21v9.76a1.75 1.75 0 1 1 -3.5 0v-9.76c.58-.03 1.16-.04 1.75-.04s1.17.01 1.75.04z"/><path d="m65.75 91.03v9.76c-.58.03-1.16.04-1.75.04s-1.17-.01-1.75-.04v-9.76a1.75 1.75 0 0 1 3.5 0z"/><path d="m91.25 39.22-6.9 6.9a1.747 1.747 0 1 1 -2.47-2.47l6.9-6.9c.86.79 1.68 1.61 2.47 2.47z"/><path d="m46.12 84.35-6.9 6.9c-.86-.79-1.68-1.61-2.47-2.47l6.9-6.9a1.747 1.747 0 1 1 2.47 2.47z"/><path d="m100.83 64c0 .59-.01 1.17-.04 1.75h-9.76a1.75 1.75 0 0 1 0-3.5h9.76c.03.58.04 1.16.04 1.75z"/><path d="m38.72 64a1.752 1.752 0 0 1 -1.75 1.75h-9.76c-.03-.58-.04-1.16-.04-1.75s.01-1.17.04-1.75h9.76a1.752 1.752 0 0 1 1.75 1.75z"/><path d="m91.25 88.78c-.79.86-1.61 1.68-2.47 2.47l-6.9-6.9a1.747 1.747 0 1 1 2.47-2.47z"/><path d="m46.12 46.12a1.75 1.75 0 0 1 -2.47 0l-6.9-6.9c.79-.86 1.61-1.68 2.47-2.47l6.9 6.9a1.75 1.75 0 0 1 0 2.47z"/></g><circle cx="64" cy="64" fill="#e8f3fc" r="27.034"/><path d="m52.63 50.281 27.437 13.719-27.437 13.719z" fill="#ff6ca8"/></svg>